<svg width="697.745117" height="649.994263" viewBox="0 0 697.745 649.994" fill="none" xmlns="http://www.w3.org/2000/svg" xmlns:xlink="http://www.w3.org/1999/xlink">
	<desc>
			Created with Pixso.
	</desc>
	<defs/>
	<path id="Path 3" d="" fill="#D8D8D8" fill-opacity="0" fill-rule="nonzero"/>
	<path id="Path 3" d="M590.03 608.2C669.72 536.01 719.82 472.78 687.47 390.97C655.11 309.16 523.04 360.11 484.67 286.99C446.3 213.87 530.61 147.51 494.26 82.43C457.91 17.35 429.96 -24.36 313.15 17.02C196.33 58.4 207.1 163.69 118.27 225.34C29.44 286.99 -66.67 379.29 65.22 543.99C197.12 708.68 281.09 593.47 356.79 617.17C432.49 640.86 510.33 680.38 590.03 608.2Z" stroke="#E4E4E4" stroke-opacity="1.000000" stroke-width="1.000000"/>
	<path id="Path 3 Copy" d="" fill="#D8D8D8" fill-opacity="0" fill-rule="nonzero"/>
	<path id="Path 3 Copy" d="M537.06 571.96C601.89 513.35 642.64 462 616.33 395.57C590.01 329.13 482.57 370.51 451.35 311.14C420.14 251.76 488.73 197.87 459.16 145.03C429.59 92.18 406.85 58.31 311.82 91.91C216.79 125.51 225.56 211.01 153.29 261.07C81.03 311.14 2.84 386.08 110.14 519.82C217.44 653.55 285.74 560 347.33 579.24C408.91 598.48 472.23 630.57 537.06 571.96Z" stroke="#E4E4E4" stroke-opacity="1.000000" stroke-width="1.000000"/>
	<path id="Path 3 Copy 2" d="" fill="#D8D8D8" fill-opacity="0" fill-rule="nonzero"/>
	<path id="Path 3 Copy 2" d="M483.55 548.13C536.14 500.31 569.21 458.41 547.85 404.21C526.5 350 439.34 383.76 414.02 335.32C388.69 286.87 444.34 242.9 420.35 199.78C396.36 156.66 377.91 129.03 300.82 156.44C223.72 183.86 230.83 253.62 172.2 294.47C113.57 335.32 50.14 396.47 137.19 505.59C224.24 614.71 279.66 538.38 329.62 554.07C379.58 569.77 430.95 595.96 483.55 548.13Z" stroke="#E4E4E4" stroke-opacity="1.000000" stroke-width="1.000000"/>
	<path id="Path 3 Copy 5" d="" fill="#D8D8D8" fill-opacity="0" fill-rule="nonzero"/>
	<path id="Path 3 Copy 5" d="M435.26 518.54C477.68 480.17 504.35 446.56 487.13 403.06C469.91 359.57 399.61 386.66 379.18 347.79C358.76 308.92 403.64 273.64 384.29 239.05C364.94 204.45 350.06 182.28 287.88 204.28C225.71 226.27 231.44 282.24 184.15 315.02C136.87 347.79 85.71 396.86 155.92 484.41C226.13 571.96 270.82 510.71 311.12 523.31C351.41 535.9 392.84 556.91 435.26 518.54Z" stroke="#E4E4E4" stroke-opacity="1.000000" stroke-width="1.000000"/>
	<path id="Path 3 Copy 4" d="" fill="#D8D8D8" fill-opacity="0" fill-rule="nonzero"/>
	<path id="Path 3 Copy 4" d="M407.74 499.55C442.38 468.18 464.16 440.71 450.1 405.16C436.03 369.61 378.62 391.75 361.94 359.98C345.26 328.21 381.91 299.37 366.11 271.09C350.31 242.82 338.16 224.69 287.38 242.67C236.59 260.65 241.28 306.4 202.66 333.19C164.04 359.98 122.26 400.09 179.6 471.65C236.94 543.21 273.44 493.15 306.35 503.45C339.26 513.74 373.1 530.91 407.74 499.55Z" stroke="#E4E4E4" stroke-opacity="1.000000" stroke-width="1.000000"/>
	<path id="Path 3 Copy 3" d="" fill="#D8D8D8" fill-opacity="0" fill-rule="nonzero"/>
	<path id="Path 3 Copy 3" d="M379.52 485.92C407.65 460.45 425.33 438.14 413.91 409.27C402.49 380.4 355.88 398.38 342.34 372.58C328.8 346.78 358.55 323.37 345.72 300.4C332.9 277.44 323.03 262.72 281.8 277.32C240.57 291.92 244.37 329.07 213.02 350.83C181.67 372.58 147.75 405.15 194.3 463.26C240.85 521.38 270.49 480.73 297.2 489.09C323.92 497.45 351.4 511.39 379.52 485.92Z" stroke="#E4E4E4" stroke-opacity="1.000000" stroke-width="1.000000"/>
</svg>
